<mxfile host="app.diagrams.net" agent="Mozilla/5.0 (Macintosh; Intel Mac OS X 10_15_7) AppleWebKit/537.36 (KHTML, like Gecko) Chrome/131.0.0.0 Safari/537.36" version="24.9.2">
  <diagram name="Improved Flowchart v2" id="UyFhluYJamQ4z4O2cick">
    <mxGraphModel dx="1514" dy="1014" grid="1" gridSize="10" guides="1" tooltips="1" connect="1" arrows="1" fold="1" page="1" pageScale="1" pageWidth="850" pageHeight="1100" math="0" shadow="0">
      <root>
        <mxCell id="0" />
        <mxCell id="1" parent="0" />
        <mxCell id="aU6WxrNx5-PwLMr71uLT-10" value="&lt;font color=&quot;#fcfcfc&quot;&gt;Start&lt;/font&gt;" style="ellipse;whiteSpace=wrap;html=1;fillColor=#004A25;" vertex="1" parent="1">
          <mxGeometry x="760" y="200" width="120" height="60" as="geometry" />
        </mxCell>
        <mxCell id="aU6WxrNx5-PwLMr71uLT-11" value="Initialize variable and receive format" style="rounded=1;whiteSpace=wrap;html=1;fillColor=#0A4063;fontColor=#FAFAFA;" vertex="1" parent="1">
          <mxGeometry x="690" y="330" width="260" height="60" as="geometry" />
        </mxCell>
        <mxCell id="aU6WxrNx5-PwLMr71uLT-12" value="Format is NULL?" style="rhombus;whiteSpace=wrap;html=1;fillColor=#6E2C2C;fontColor=#FAFAFA;" vertex="1" parent="1">
          <mxGeometry x="730" y="460" width="180" height="80" as="geometry" />
        </mxCell>
        <mxCell id="aU6WxrNx5-PwLMr71uLT-13" value="Return -1" style="rounded=1;whiteSpace=wrap;html=1;fillColor=#004A25;gradientColor=none;fontColor=#FAFAFA;" vertex="1" parent="1">
          <mxGeometry x="490" y="540" width="120" height="60" as="geometry" />
        </mxCell>
        <mxCell id="aU6WxrNx5-PwLMr71uLT-14" value="Is it empty?" style="rhombus;whiteSpace=wrap;html=1;fillColor=#6E2C2C;fontColor=#FAFAFA;" vertex="1" parent="1">
          <mxGeometry x="990" y="520" width="180" height="80" as="geometry" />
        </mxCell>
        <mxCell id="aU6WxrNx5-PwLMr71uLT-15" value="&lt;font&gt;Return counter&lt;/font&gt;" style="rounded=1;whiteSpace=wrap;html=1;fillColor=#004A25;fontColor=#FAFAFA;" vertex="1" parent="1">
          <mxGeometry x="1230" y="630" width="180" height="60" as="geometry" />
        </mxCell>
        <mxCell id="aU6WxrNx5-PwLMr71uLT-16" value="Â¿Is %?" style="rhombus;whiteSpace=wrap;html=1;fillColor=#6E2C2C;fontColor=#FAFAFA;" vertex="1" parent="1">
          <mxGeometry x="830" y="630" width="180" height="80" as="geometry" />
        </mxCell>
        <mxCell id="aU6WxrNx5-PwLMr71uLT-17" value="Iterate to the next" style="rounded=1;whiteSpace=wrap;html=1;fillColor=#0A4063;strokeColor=none;fontColor=#FAFAFA;" vertex="1" parent="1">
          <mxGeometry x="1090" y="740" width="260" height="60" as="geometry" />
        </mxCell>
        <mxCell id="aU6WxrNx5-PwLMr71uLT-18" value="Valid format?" style="rhombus;whiteSpace=wrap;html=1;fillColor=#6E2C2C;gradientColor=none;fontColor=#FAFAFA;" vertex="1" parent="1">
          <mxGeometry x="1130" y="900" width="180" height="80" as="geometry" />
        </mxCell>
        <mxCell id="aU6WxrNx5-PwLMr71uLT-20" value="Call the corresponding function" style="rounded=1;whiteSpace=wrap;html=1;fillColor=#0A4063;fontColor=#FAFAFA;" vertex="1" parent="1">
          <mxGeometry x="1220" y="1070" width="260" height="60" as="geometry" />
        </mxCell>
        <mxCell id="aU6WxrNx5-PwLMr71uLT-21" value="Show result" style="rounded=1;whiteSpace=wrap;html=1;fillColor=#0A4063;fontColor=#FAFAFA;" vertex="1" parent="1">
          <mxGeometry x="1220" y="1220" width="260" height="60" as="geometry" />
        </mxCell>
        <mxCell id="aU6WxrNx5-PwLMr71uLT-22" value="Update counter" style="rounded=1;whiteSpace=wrap;html=1;fillColor=#0A4063;fontColor=#FAFAFA;" vertex="1" parent="1">
          <mxGeometry x="1220" y="1360" width="260" height="60" as="geometry" />
        </mxCell>
        <mxCell id="aU6WxrNx5-PwLMr71uLT-24" style="fontColor=#FAFAFA;" edge="1" parent="1" source="aU6WxrNx5-PwLMr71uLT-10" target="aU6WxrNx5-PwLMr71uLT-11">
          <mxGeometry relative="1" as="geometry" />
        </mxCell>
        <mxCell id="aU6WxrNx5-PwLMr71uLT-25" style="fontColor=#FAFAFA;" edge="1" parent="1" source="aU6WxrNx5-PwLMr71uLT-11" target="aU6WxrNx5-PwLMr71uLT-12">
          <mxGeometry relative="1" as="geometry" />
        </mxCell>
        <mxCell id="aU6WxrNx5-PwLMr71uLT-26" value="Yes" style="fontColor=#0A0A0A;" edge="1" parent="1" source="aU6WxrNx5-PwLMr71uLT-12" target="aU6WxrNx5-PwLMr71uLT-13">
          <mxGeometry x="-0.0082" relative="1" as="geometry">
            <mxPoint x="670" y="610" as="targetPoint" />
            <mxPoint as="offset" />
          </mxGeometry>
        </mxCell>
        <mxCell id="aU6WxrNx5-PwLMr71uLT-27" value="No" style="fontColor=#141414;" edge="1" parent="1" source="aU6WxrNx5-PwLMr71uLT-12" target="aU6WxrNx5-PwLMr71uLT-14">
          <mxGeometry relative="1" as="geometry" />
        </mxCell>
        <mxCell id="aU6WxrNx5-PwLMr71uLT-28" value="Yes" style="fontColor=#050505;" edge="1" parent="1" source="aU6WxrNx5-PwLMr71uLT-14" target="aU6WxrNx5-PwLMr71uLT-15">
          <mxGeometry x="0.0048" relative="1" as="geometry">
            <mxPoint as="offset" />
          </mxGeometry>
        </mxCell>
        <mxCell id="aU6WxrNx5-PwLMr71uLT-29" value="No" style="fontColor=#FAFAFA;" edge="1" parent="1" source="aU6WxrNx5-PwLMr71uLT-14" target="aU6WxrNx5-PwLMr71uLT-16">
          <mxGeometry x="0.0016" relative="1" as="geometry">
            <mxPoint as="offset" />
          </mxGeometry>
        </mxCell>
        <mxCell id="aU6WxrNx5-PwLMr71uLT-30" style="fontColor=#FAFAFA;" edge="1" parent="1" source="aU6WxrNx5-PwLMr71uLT-17" target="aU6WxrNx5-PwLMr71uLT-18">
          <mxGeometry relative="1" as="geometry" />
        </mxCell>
        <mxCell id="aU6WxrNx5-PwLMr71uLT-31" value="No" style="fontColor=#000000;" edge="1" parent="1" source="aU6WxrNx5-PwLMr71uLT-18">
          <mxGeometry x="-0.003" relative="1" as="geometry">
            <mxPoint x="1049.375" y="1069.9999999999998" as="targetPoint" />
            <mxPoint as="offset" />
          </mxGeometry>
        </mxCell>
        <mxCell id="aU6WxrNx5-PwLMr71uLT-32" value="Yes" style="fontColor=#000000;" edge="1" parent="1" source="aU6WxrNx5-PwLMr71uLT-18" target="aU6WxrNx5-PwLMr71uLT-20">
          <mxGeometry x="-0.0031" relative="1" as="geometry">
            <mxPoint as="offset" />
          </mxGeometry>
        </mxCell>
        <mxCell id="aU6WxrNx5-PwLMr71uLT-33" style="fontColor=#FAFAFA;" edge="1" parent="1" source="aU6WxrNx5-PwLMr71uLT-20" target="aU6WxrNx5-PwLMr71uLT-21">
          <mxGeometry relative="1" as="geometry" />
        </mxCell>
        <mxCell id="aU6WxrNx5-PwLMr71uLT-34" style="fontColor=#FAFAFA;" edge="1" parent="1" source="aU6WxrNx5-PwLMr71uLT-21" target="aU6WxrNx5-PwLMr71uLT-22">
          <mxGeometry relative="1" as="geometry" />
        </mxCell>
        <mxCell id="aU6WxrNx5-PwLMr71uLT-35" style="fontColor=#FAFAFA;" edge="1" parent="1" source="aU6WxrNx5-PwLMr71uLT-22">
          <mxGeometry relative="1" as="geometry">
            <mxPoint x="1350" y="1530" as="targetPoint" />
          </mxGeometry>
        </mxCell>
        <mxCell id="aU6WxrNx5-PwLMr71uLT-36" value="Yes" style="fontColor=#000000;" edge="1" parent="1">
          <mxGeometry x="0.0006" relative="1" as="geometry">
            <mxPoint x="970" y="690" as="sourcePoint" />
            <mxPoint x="1092" y="741" as="targetPoint" />
            <mxPoint as="offset" />
          </mxGeometry>
        </mxCell>
        <mxCell id="aU6WxrNx5-PwLMr71uLT-37" value="No" style="fontColor=#000000;" edge="1" parent="1">
          <mxGeometry x="0.0012" relative="1" as="geometry">
            <mxPoint x="858" y="680" as="sourcePoint" />
            <mxPoint x="730" y="740" as="targetPoint" />
            <mxPoint as="offset" />
          </mxGeometry>
        </mxCell>
        <mxCell id="aU6WxrNx5-PwLMr71uLT-38" value="Write the argument on the screen" style="rounded=1;whiteSpace=wrap;html=1;fillColor=#0A4063;fontColor=#FAFAFA;" vertex="1" parent="1">
          <mxGeometry x="530" y="740" width="260" height="60" as="geometry" />
        </mxCell>
        <mxCell id="aU6WxrNx5-PwLMr71uLT-39" value="Update counter" style="rounded=1;whiteSpace=wrap;html=1;fillColor=#0A4063;fontColor=#FAFAFA;" vertex="1" parent="1">
          <mxGeometry x="520" y="900" width="260" height="60" as="geometry" />
        </mxCell>
        <mxCell id="aU6WxrNx5-PwLMr71uLT-40" style="fontColor=#FAFAFA;" edge="1" parent="1">
          <mxGeometry relative="1" as="geometry">
            <mxPoint x="659.17" y="810" as="sourcePoint" />
            <mxPoint x="659.17" y="890" as="targetPoint" />
            <Array as="points">
              <mxPoint x="659.17" y="830" />
            </Array>
          </mxGeometry>
        </mxCell>
        <mxCell id="aU6WxrNx5-PwLMr71uLT-41" style="fontColor=#FAFAFA;" edge="1" parent="1">
          <mxGeometry relative="1" as="geometry">
            <mxPoint x="659.17" y="960" as="sourcePoint" />
            <mxPoint x="659.17" y="1070" as="targetPoint" />
          </mxGeometry>
        </mxCell>
        <mxCell id="aU6WxrNx5-PwLMr71uLT-42" value="End" style="ellipse;whiteSpace=wrap;html=1;fillColor=#004A25;fontColor=#FAFAFA;" vertex="1" parent="1">
          <mxGeometry x="600" y="1070" width="120" height="60" as="geometry" />
        </mxCell>
        <mxCell id="aU6WxrNx5-PwLMr71uLT-43" value="Return -1" style="rounded=1;whiteSpace=wrap;html=1;fillColor=#004A25;gradientColor=none;fontColor=#FAFAFA;" vertex="1" parent="1">
          <mxGeometry x="950" y="1070" width="120" height="60" as="geometry" />
        </mxCell>
        <mxCell id="aU6WxrNx5-PwLMr71uLT-44" value="End" style="ellipse;whiteSpace=wrap;html=1;fillColor=#004A25;fontColor=#FAFAFA;" vertex="1" parent="1">
          <mxGeometry x="1290" y="1530" width="120" height="60" as="geometry" />
        </mxCell>
      </root>
    </mxGraphModel>
  </diagram>
</mxfile>
